<?xml version="1.0" encoding="UTF-8"?><svg xmlns="http://www.w3.org/2000/svg" width="100%" height="100%"><line x1="100" y1="100" x2="100" y2="600" stroke="blue" stroke-width="2"/><line x1="100" y1="600" x2="1000" y2="600" stroke="blue" stroke-width="2"/><text stroke="blue" x="120" y="620">Casablanca</text><rect width="20" height="220" x="120" y="380" stroke="blue" fill="orange"/><text stroke="blue" x="120" y="365">22</text><text stroke="blue" x="240" y="620">Marrakech</text><rect width="20" height="250" x="240" y="350" stroke="blue" fill="orange"/><text stroke="blue" x="240" y="335">25</text><text stroke="blue" x="360" y="620">Mohammedia</text><rect width="20" height="260" x="360" y="340" stroke="blue" fill="orange"/><text stroke="blue" x="360" y="325">26</text><text stroke="blue" x="480" y="620">Tanger</text><rect width="20" height="270" x="480" y="330" stroke="blue" fill="orange"/><text stroke="blue" x="480" y="315">27</text><text stroke="blue" x="600" y="620">El jadida</text><rect width="20" height="280" x="600" y="320" stroke="blue" fill="orange"/><text stroke="blue" x="600" y="305">28</text><text stroke="blue" x="720" y="620">Laayoune</text><rect width="20" height="230" x="720" y="370" stroke="blue" fill="orange"/><text stroke="blue" x="720" y="355">23</text><text stroke="blue" x="840" y="620">DAKHLA</text><rect width="20" height="210" x="840" y="390" stroke="blue" fill="orange"/><text stroke="blue" x="840" y="375">21</text></svg>